<svg xmlns="http://www.w3.org/2000/svg" viewBox="0 14.850000381469727 51.19545364379883 31.94999885559082" data-asc="0.924" width="51.19545364379883" height="31.94999885559082"><defs/><g fill="#000000"><g transform="translate(0, 0)"><path d="M13.50 46.40Q12.05 46.40 10.15 46.25Q9.45 46.20 8.38 46.15Q7.30 46.10 6 46.10L2.60 46.15Q1.70 46.20 0.10 46.20Q0 46.20 0 45.90Q0 45.60 0.10 45.60Q2 45.60 2.88 45.35Q3.75 45.10 4.08 44.38Q4.40 43.65 4.40 42.15L4.40 19Q4.40 17.50 4.10 16.80Q3.80 16.10 2.92 15.83Q2.05 15.55 0.15 15.55Q0.05 15.55 0.05 15.25Q0.05 14.95 0.15 14.95L2.65 15Q4.75 15.10 6 15.10Q7.90 15.10 9.75 14.95Q11.95 14.85 12.80 14.85Q18.00 14.85 22.00 16.85Q26.00 18.85 28.23 22.30Q30.45 25.75 30.45 30.05Q30.45 34.90 28.18 38.63Q25.90 42.35 22.00 44.38Q18.10 46.40 13.50 46.40M13 45.65Q17.00 45.65 20.10 43.98Q23.20 42.30 24.93 39.03Q26.65 35.75 26.65 31.15Q26.65 26.80 25.00 23.25Q23.35 19.70 20.30 17.65Q17.25 15.60 13.25 15.60Q11.10 15.60 9.93 15.85Q8.75 16.10 8.20 16.85Q7.65 17.60 7.65 19.10L7.65 41.60Q7.65 43.10 8.08 43.95Q8.50 44.80 9.68 45.23Q10.85 45.65 13 45.65ZM43.85 46.80Q40.95 46.80 38.90 45.45Q36.85 44.10 35.78 41.90Q34.70 39.70 34.70 37.20Q34.70 34.25 36.10 31.78Q37.50 29.30 39.93 27.88Q42.35 26.45 45.25 26.45Q48.05 26.45 49.55 27.95Q51.05 29.45 51.05 32.15Q51.05 32.85 50.93 33.15Q50.80 33.45 50.45 33.45L47.65 33.45L47.70 32.55Q47.70 30.05 46.60 28.75Q45.50 27.45 43.60 27.45Q40.95 27.45 39.48 29.55Q38.00 31.65 38.00 35.30Q38.00 39.65 40.05 42.35Q42.10 45.05 45.80 45.05Q47.30 45.05 48.38 44.65Q49.45 44.25 50.80 43.40L50.85 43.40Q51.00 43.40 51.13 43.58Q51.25 43.75 51.15 43.90Q47.75 46.80 43.85 46.80M37.05 32.85L48.40 32.65L48.40 33.45L37.10 33.50L37.05 32.85Z"/></g></g></svg>
